<mxfile host="65bd71144e">
    <diagram id="QUdB0CWQBycWKnxKSDZe" name="Page-1">
        <mxGraphModel dx="808" dy="479" grid="1" gridSize="10" guides="1" tooltips="1" connect="1" arrows="1" fold="1" page="1" pageScale="1" pageWidth="827" pageHeight="1169" math="0" shadow="0">
            <root>
                <mxCell id="0"/>
                <mxCell id="1" parent="0"/>
                <mxCell id="29" value="&lt;u&gt;id&lt;/u&gt;" style="ellipse;whiteSpace=wrap;html=1;" vertex="1" parent="1">
                    <mxGeometry x="160" y="780" width="120" height="40" as="geometry"/>
                </mxCell>
                <mxCell id="30" value="Usuario" style="whiteSpace=wrap;html=1;" vertex="1" parent="1">
                    <mxGeometry x="280" y="860" width="120" height="60" as="geometry"/>
                </mxCell>
                <mxCell id="31" value="nombre" style="ellipse;whiteSpace=wrap;html=1;" vertex="1" parent="1">
                    <mxGeometry x="110" y="840" width="120" height="40" as="geometry"/>
                </mxCell>
                <mxCell id="33" value="fechaNacimiento" style="ellipse;whiteSpace=wrap;html=1;" vertex="1" parent="1">
                    <mxGeometry x="110" y="900" width="120" height="40" as="geometry"/>
                </mxCell>
                <mxCell id="34" value="email" style="ellipse;whiteSpace=wrap;html=1;" vertex="1" parent="1">
                    <mxGeometry x="160" y="960" width="120" height="40" as="geometry"/>
                </mxCell>
                <mxCell id="37" value="" style="endArrow=none;html=1;" edge="1" parent="1" source="30" target="29">
                    <mxGeometry width="50" height="50" relative="1" as="geometry">
                        <mxPoint x="310" y="870" as="sourcePoint"/>
                        <mxPoint x="360" y="820" as="targetPoint"/>
                    </mxGeometry>
                </mxCell>
                <mxCell id="38" value="" style="endArrow=none;html=1;" edge="1" parent="1" source="30" target="31">
                    <mxGeometry width="50" height="50" relative="1" as="geometry">
                        <mxPoint x="313.9999999999999" y="890" as="sourcePoint"/>
                        <mxPoint x="252.28344058124617" y="838.5695338177054" as="targetPoint"/>
                    </mxGeometry>
                </mxCell>
                <mxCell id="39" value="" style="endArrow=none;html=1;" edge="1" parent="1" source="30" target="33">
                    <mxGeometry width="50" height="50" relative="1" as="geometry">
                        <mxPoint x="290.0000000000001" y="902.3286142748539" as="sourcePoint"/>
                        <mxPoint x="225.06558057472478" y="883.2039280664799" as="targetPoint"/>
                    </mxGeometry>
                </mxCell>
                <mxCell id="40" value="" style="endArrow=none;html=1;" edge="1" parent="1" source="30" target="34">
                    <mxGeometry width="50" height="50" relative="1" as="geometry">
                        <mxPoint x="290.0000000000001" y="923.5773716866922" as="sourcePoint"/>
                        <mxPoint x="239.13195071663984" y="926.6102703410845" as="targetPoint"/>
                    </mxGeometry>
                </mxCell>
                <mxCell id="41" value="sigue" style="rhombus;whiteSpace=wrap;html=1;" vertex="1" parent="1">
                    <mxGeometry x="400" y="730" width="80" height="80" as="geometry"/>
                </mxCell>
                <mxCell id="44" value="" style="endArrow=none;html=1;entryX=1;entryY=0.25;entryDx=0;entryDy=0;startArrow=none;" edge="1" parent="1" source="46" target="30">
                    <mxGeometry width="50" height="50" relative="1" as="geometry">
                        <mxPoint x="580.0000000000001" y="892.11" as="sourcePoint"/>
                        <mxPoint x="531.8328157300002" y="859.9985438200002" as="targetPoint"/>
                        <Array as="points">
                            <mxPoint x="440" y="875"/>
                        </Array>
                    </mxGeometry>
                </mxCell>
                <mxCell id="45" value="" style="endArrow=none;html=1;startArrow=none;" edge="1" parent="1" source="47" target="30">
                    <mxGeometry width="50" height="50" relative="1" as="geometry">
                        <mxPoint x="310" y="830" as="sourcePoint"/>
                        <mxPoint x="410" y="900" as="targetPoint"/>
                        <Array as="points">
                            <mxPoint x="340" y="860"/>
                        </Array>
                    </mxGeometry>
                </mxCell>
                <mxCell id="48" value="aÃ±ade" style="rhombus;whiteSpace=wrap;html=1;" vertex="1" parent="1">
                    <mxGeometry x="500" y="850" width="80" height="80" as="geometry"/>
                </mxCell>
                <mxCell id="51" value="" style="endArrow=none;html=1;startArrow=none;" edge="1" parent="1" target="48">
                    <mxGeometry width="50" height="50" relative="1" as="geometry">
                        <mxPoint x="470" y="890" as="sourcePoint"/>
                        <mxPoint x="560" y="790" as="targetPoint"/>
                        <Array as="points"/>
                    </mxGeometry>
                </mxCell>
                <mxCell id="52" value="Vino" style="whiteSpace=wrap;html=1;" vertex="1" parent="1">
                    <mxGeometry x="680" y="860" width="120" height="60" as="geometry"/>
                </mxCell>
                <mxCell id="54" value="" style="endArrow=none;html=1;startArrow=none;" edge="1" parent="1" source="82" target="52">
                    <mxGeometry width="50" height="50" relative="1" as="geometry">
                        <mxPoint x="410" y="900" as="sourcePoint"/>
                        <mxPoint x="530" y="900" as="targetPoint"/>
                    </mxGeometry>
                </mxCell>
                <mxCell id="55" value="&lt;u&gt;id&lt;/u&gt;" style="ellipse;whiteSpace=wrap;html=1;" vertex="1" parent="1">
                    <mxGeometry x="827" y="690" width="120" height="40" as="geometry"/>
                </mxCell>
                <mxCell id="57" value="nombre" style="ellipse;whiteSpace=wrap;html=1;" vertex="1" parent="1">
                    <mxGeometry x="880" y="750" width="120" height="40" as="geometry"/>
                </mxCell>
                <mxCell id="58" value="bodega" style="ellipse;whiteSpace=wrap;html=1;" vertex="1" parent="1">
                    <mxGeometry x="920" y="810" width="120" height="40" as="geometry"/>
                </mxCell>
                <mxCell id="59" value="agnada" style="ellipse;whiteSpace=wrap;html=1;" vertex="1" parent="1">
                    <mxGeometry x="930" y="870" width="120" height="40" as="geometry"/>
                </mxCell>
                <mxCell id="60" value="denominacion" style="ellipse;whiteSpace=wrap;html=1;" vertex="1" parent="1">
                    <mxGeometry x="920" y="930" width="120" height="40" as="geometry"/>
                </mxCell>
                <mxCell id="61" value="tipo" style="ellipse;whiteSpace=wrap;html=1;" vertex="1" parent="1">
                    <mxGeometry x="880" y="990" width="120" height="40" as="geometry"/>
                </mxCell>
                <mxCell id="62" value="puntuacion" style="ellipse;whiteSpace=wrap;html=1;" vertex="1" parent="1">
                    <mxGeometry x="827" y="1050" width="120" height="40" as="geometry"/>
                </mxCell>
                <mxCell id="65" value="" style="endArrow=none;html=1;" edge="1" parent="1" source="52" target="55">
                    <mxGeometry width="50" height="50" relative="1" as="geometry">
                        <mxPoint x="590" y="900" as="sourcePoint"/>
                        <mxPoint x="690" y="900" as="targetPoint"/>
                    </mxGeometry>
                </mxCell>
                <mxCell id="66" value="" style="endArrow=none;html=1;" edge="1" parent="1" source="52" target="57">
                    <mxGeometry width="50" height="50" relative="1" as="geometry">
                        <mxPoint x="774.5120121686818" y="870" as="sourcePoint"/>
                        <mxPoint x="881.3000852876787" y="739.3031738266243" as="targetPoint"/>
                    </mxGeometry>
                </mxCell>
                <mxCell id="67" value="" style="endArrow=none;html=1;" edge="1" parent="1" source="52" target="58">
                    <mxGeometry width="50" height="50" relative="1" as="geometry">
                        <mxPoint x="800" y="870" as="sourcePoint"/>
                        <mxPoint x="920.8614241292821" y="797.4831455224307" as="targetPoint"/>
                    </mxGeometry>
                </mxCell>
                <mxCell id="68" value="" style="endArrow=none;html=1;" edge="1" parent="1" source="52" target="59">
                    <mxGeometry width="50" height="50" relative="1" as="geometry">
                        <mxPoint x="810" y="885" as="sourcePoint"/>
                        <mxPoint x="942" y="852" as="targetPoint"/>
                    </mxGeometry>
                </mxCell>
                <mxCell id="69" value="" style="endArrow=none;html=1;" edge="1" parent="1" source="52" target="60">
                    <mxGeometry width="50" height="50" relative="1" as="geometry">
                        <mxPoint x="810" y="900" as="sourcePoint"/>
                        <mxPoint x="930" y="900" as="targetPoint"/>
                    </mxGeometry>
                </mxCell>
                <mxCell id="70" value="" style="endArrow=none;html=1;" edge="1" parent="1" source="52" target="61">
                    <mxGeometry width="50" height="50" relative="1" as="geometry">
                        <mxPoint x="810" y="915" as="sourcePoint"/>
                        <mxPoint x="942" y="948" as="targetPoint"/>
                    </mxGeometry>
                </mxCell>
                <mxCell id="71" value="" style="endArrow=none;html=1;" edge="1" parent="1" source="52" target="62">
                    <mxGeometry width="50" height="50" relative="1" as="geometry">
                        <mxPoint x="800" y="930" as="sourcePoint"/>
                        <mxPoint x="920.8614241292821" y="1002.5168544775693" as="targetPoint"/>
                    </mxGeometry>
                </mxCell>
                <mxCell id="73" value="" style="endArrow=none;html=1;" edge="1" parent="1" source="41" target="46">
                    <mxGeometry width="50" height="50" relative="1" as="geometry">
                        <mxPoint x="440" y="840" as="sourcePoint"/>
                        <mxPoint x="400" y="875" as="targetPoint"/>
                        <Array as="points"/>
                    </mxGeometry>
                </mxCell>
                <mxCell id="46" value="1:N" style="text;html=1;align=center;verticalAlign=middle;resizable=0;points=[];autosize=1;strokeColor=none;fillColor=none;" vertex="1" parent="1">
                    <mxGeometry x="420" y="825" width="40" height="30" as="geometry"/>
                </mxCell>
                <mxCell id="74" value="" style="endArrow=none;html=1;" edge="1" parent="1" source="41" target="47">
                    <mxGeometry width="50" height="50" relative="1" as="geometry">
                        <mxPoint x="409.23076923076917" y="779.230769230769" as="sourcePoint"/>
                        <mxPoint x="340" y="860" as="targetPoint"/>
                        <Array as="points">
                            <mxPoint x="340" y="770"/>
                        </Array>
                    </mxGeometry>
                </mxCell>
                <mxCell id="47" value="1:N" style="text;html=1;align=center;verticalAlign=middle;resizable=0;points=[];autosize=1;strokeColor=none;fillColor=none;" vertex="1" parent="1">
                    <mxGeometry x="320" y="795" width="40" height="30" as="geometry"/>
                </mxCell>
                <mxCell id="81" value="" style="endArrow=none;html=1;" edge="1" parent="1" source="30" target="72">
                    <mxGeometry width="50" height="50" relative="1" as="geometry">
                        <mxPoint x="400" y="890" as="sourcePoint"/>
                        <mxPoint x="500" y="890" as="targetPoint"/>
                        <Array as="points"/>
                    </mxGeometry>
                </mxCell>
                <mxCell id="72" value="1:N" style="text;html=1;align=center;verticalAlign=middle;resizable=0;points=[];autosize=1;strokeColor=none;fillColor=none;" vertex="1" parent="1">
                    <mxGeometry x="430" y="875" width="40" height="30" as="geometry"/>
                </mxCell>
                <mxCell id="83" value="" style="endArrow=none;html=1;" edge="1" parent="1" source="48" target="82">
                    <mxGeometry width="50" height="50" relative="1" as="geometry">
                        <mxPoint x="580" y="890" as="sourcePoint"/>
                        <mxPoint x="679.9999999999998" y="890" as="targetPoint"/>
                    </mxGeometry>
                </mxCell>
                <mxCell id="82" value="1:N" style="text;html=1;align=center;verticalAlign=middle;resizable=0;points=[];autosize=1;strokeColor=none;fillColor=none;" vertex="1" parent="1">
                    <mxGeometry x="610" y="875" width="40" height="30" as="geometry"/>
                </mxCell>
                <mxCell id="84" value="TipoUva" style="whiteSpace=wrap;html=1;" vertex="1" parent="1">
                    <mxGeometry x="680" y="1280" width="120" height="60" as="geometry"/>
                </mxCell>
                <mxCell id="85" value="pertenece" style="rhombus;whiteSpace=wrap;html=1;" vertex="1" parent="1">
                    <mxGeometry x="700" y="1070" width="80" height="80" as="geometry"/>
                </mxCell>
                <mxCell id="86" value="" style="endArrow=none;html=1;startArrow=none;" edge="1" parent="1" source="88" target="52">
                    <mxGeometry width="50" height="50" relative="1" as="geometry">
                        <mxPoint x="480" y="900" as="sourcePoint"/>
                        <mxPoint x="510" y="900" as="targetPoint"/>
                        <Array as="points"/>
                    </mxGeometry>
                </mxCell>
                <mxCell id="87" value="" style="endArrow=none;html=1;startArrow=none;" edge="1" parent="1" source="90" target="85">
                    <mxGeometry width="50" height="50" relative="1" as="geometry">
                        <mxPoint x="750" y="1020" as="sourcePoint"/>
                        <mxPoint x="750" y="930" as="targetPoint"/>
                        <Array as="points"/>
                    </mxGeometry>
                </mxCell>
                <mxCell id="89" value="" style="endArrow=none;html=1;startArrow=none;" edge="1" parent="1" source="85" target="88">
                    <mxGeometry width="50" height="50" relative="1" as="geometry">
                        <mxPoint x="740" y="1070" as="sourcePoint"/>
                        <mxPoint x="740" y="920" as="targetPoint"/>
                        <Array as="points"/>
                    </mxGeometry>
                </mxCell>
                <mxCell id="88" value="1:N" style="text;html=1;align=center;verticalAlign=middle;resizable=0;points=[];autosize=1;strokeColor=none;fillColor=none;" vertex="1" parent="1">
                    <mxGeometry x="720" y="980" width="40" height="30" as="geometry"/>
                </mxCell>
                <mxCell id="91" value="" style="endArrow=none;html=1;startArrow=none;" edge="1" parent="1" source="84" target="90">
                    <mxGeometry width="50" height="50" relative="1" as="geometry">
                        <mxPoint x="740" y="1280" as="sourcePoint"/>
                        <mxPoint x="740" y="1150" as="targetPoint"/>
                        <Array as="points"/>
                    </mxGeometry>
                </mxCell>
                <mxCell id="90" value="1:N" style="text;html=1;align=center;verticalAlign=middle;resizable=0;points=[];autosize=1;strokeColor=none;fillColor=none;" vertex="1" parent="1">
                    <mxGeometry x="720" y="1200" width="40" height="30" as="geometry"/>
                </mxCell>
                <mxCell id="93" value="&lt;u&gt;id&lt;/u&gt;" style="ellipse;whiteSpace=wrap;html=1;" vertex="1" parent="1">
                    <mxGeometry x="500" y="1220" width="120" height="40" as="geometry"/>
                </mxCell>
                <mxCell id="94" value="" style="endArrow=none;html=1;" edge="1" parent="1" source="84" target="93">
                    <mxGeometry width="50" height="50" relative="1" as="geometry">
                        <mxPoint x="550" y="1390" as="sourcePoint"/>
                        <mxPoint x="600" y="1340" as="targetPoint"/>
                    </mxGeometry>
                </mxCell>
                <mxCell id="95" value="nombre" style="ellipse;whiteSpace=wrap;html=1;" vertex="1" parent="1">
                    <mxGeometry x="500" y="1290" width="120" height="40" as="geometry"/>
                </mxCell>
                <mxCell id="96" value="porcentaje" style="ellipse;whiteSpace=wrap;html=1;" vertex="1" parent="1">
                    <mxGeometry x="500" y="1360" width="120" height="40" as="geometry"/>
                </mxCell>
                <mxCell id="97" value="" style="endArrow=none;html=1;" edge="1" parent="1" source="84" target="95">
                    <mxGeometry width="50" height="50" relative="1" as="geometry">
                        <mxPoint x="810" y="1302.0235255992052" as="sourcePoint"/>
                        <mxPoint x="905.4934123430833" y="1273.412944225372" as="targetPoint"/>
                    </mxGeometry>
                </mxCell>
                <mxCell id="98" value="" style="endArrow=none;html=1;" edge="1" parent="1" source="84" target="96">
                    <mxGeometry width="50" height="50" relative="1" as="geometry">
                        <mxPoint x="810" y="1320.0000000000002" as="sourcePoint"/>
                        <mxPoint x="889.9999999999998" y="1320.0000000000002" as="targetPoint"/>
                    </mxGeometry>
                </mxCell>
            </root>
        </mxGraphModel>
    </diagram>
</mxfile>